# xmcd
#
# Track frame offsets:
#	150
#	13586
#	25462
#	44021
#	59924
#	83620
#	98963
#	113055
#	131998
#	145520
#	154285
#	173922
#	194360
#	213486
#	233627
#	258207
#	274109
#	288223
#	307584
#
# Disc length: 4345 seconds
#
# Revision: 1
# Processed by: cddbd v1.5.2PL0 Copyright (c) Steve Scherf et al.
# Submitted via: audiograbber 1.83.01
#
DISCID=0e10f713
DTITLE=Steve Haggerty and The Wanted - 10 Years Of Rock and Country
DYEAR=2012
DGENRE=Country
TTITLE0=I won't back down
TTITLE1=Standing on the rock
TTITLE2=Hurry Sundown
TTITLE3=I know a little
TTITLE4=Ride on
TTITLE5=Don't stop
TTITLE6=Living in the band
TTITLE7=The Letter
TTITLE8=Ruby
TTITLE9=Ring of fire
TTITLE10=Heartache tonight
TTITLE11=Wild West Show
TTITLE12=Free fallin'
TTITLE13=Stampede
TTITLE14=Ghostriders
TTITLE15=Creepin' in
TTITLE16=Lonestar
TTITLE17=I don't need no doctor
TTITLE18=After dark (Live)
EXTD=
EXTT0=
EXTT1=
EXTT2=
EXTT3=
EXTT4=
EXTT5=
EXTT6=
EXTT7=
EXTT8=
EXTT9=
EXTT10=
EXTT11=
EXTT12=
EXTT13=
EXTT14=
EXTT15=
EXTT16=
EXTT17=
EXTT18=
PLAYORDER=
